<?xml version="1.0" standalone="no"?>
<!DOCTYPE svg PUBLIC "-//W3C//DTD SVG 20010904//EN"
 "http://www.w3.org/TR/2001/REC-SVG-20010904/DTD/svg10.dtd">
<svg version="1.0" xmlns="http://www.w3.org/2000/svg"
 width="300.000000pt" height="300.000000pt" viewBox="0 0 300.000000 300.000000"
 preserveAspectRatio="xMidYMid meet">
<metadata>
Created by potrace 1.11, written by Peter Selinger 2001-2013
</metadata>
<g transform="translate(0.000000,300.000000) scale(0.100000,-0.100000)"
fill="#000000" stroke="none">
<path d="M0 1500 l0 -1500 655 0 655 0 0 58 c-1 31 -7 86 -15 122 -20 90 -18
144 5 189 21 43 93 110 142 134 30 15 32 14 43 -6 16 -33 54 -48 115 -45 30 1
60 -1 66 -4 14 -9 24 0 18 16 -3 7 2 27 9 45 12 28 15 30 21 15 6 -15 9 -16
16 -4 16 26 22 3 7 -27 -21 -40 -59 -73 -104 -88 -31 -12 -33 -14 -13 -14 43
-1 102 40 124 86 15 30 27 42 43 43 22 0 22 -1 -8 -56 -36 -69 -40 -151 -10
-200 26 -42 80 -82 122 -90 54 -11 59 -19 59 -100 l0 -74 525 0 525 0 0 1500
0 1500 -1500 0 -1500 0 0 -1500z m1268 1100 c5 -92 34 -229 69 -329 4 -9 -5
-2 -18 14 -13 17 -27 32 -31 33 -5 2 -8 9 -8 16 0 7 -11 41 -25 75 -25 66 -51
214 -40 232 4 5 17 9 28 7 18 -2 22 -11 25 -48z m310 -12 c18 -18 15 -58 -4
-58 -56 0 -154 -206 -154 -324 0 -26 -6 -38 -21 -46 -24 -14 -22 -16 -37 35
-23 82 50 284 134 368 39 38 62 45 82 25z m-464 -145 c75 -38 167 -132 204
-208 36 -73 40 -95 15 -95 -28 0 -39 11 -60 60 -34 77 -137 166 -249 216 -50
22 -54 26 -43 45 9 18 16 20 47 14 20 -4 59 -18 86 -32z m366 -293 c0 -34
-181 -66 -230 -40 -37 20 -4 31 75 24 55 -4 74 -2 90 10 22 17 65 21 65 6z
m30 -48 c0 -17 -105 -64 -155 -70 -50 -5 -125 14 -125 33 0 7 -3 21 -7 30 -5
15 -3 16 15 6 46 -24 217 -7 243 26 10 11 14 11 20 1 5 -7 9 -19 9 -26z m105
-75 c219 -110 428 -367 520 -640 96 -289 20 -520 -208 -628 -86 -40 -106 -36
-27 6 138 73 175 149 174 350 -1 116 -4 140 -31 225 -79 246 -192 412 -370
546 -90 68 -173 112 -226 121 l-40 6 54 28 c60 30 68 30 154 -14z m-335 -22
c-84 -29 -88 -29 -52 -2 22 17 40 23 59 19 l27 -5 -34 -12z m225 -34 c71 -32
212 -139 293 -226 111 -116 192 -271 244 -465 28 -104 30 -266 4 -335 -39
-104 -88 -146 -236 -201 -140 -52 -242 -68 -386 -60 -433 22 -675 177 -691
440 -8 127 35 261 150 461 173 303 317 421 502 411 43 -2 89 -12 120 -25z
m480 -1449 c48 -34 53 -159 10 -237 -15 -27 -34 -57 -42 -67 -13 -14 -12 -17
4 -21 10 -3 -2 -3 -27 0 -53 7 -87 22 -117 55 -61 66 -54 169 17 240 34 35 42
38 91 38 30 0 59 -4 64 -8z m-657 -23 l32 -11 -40 -45 c-49 -56 -73 -129 -64
-192 l7 -44 -39 7 c-48 9 -70 28 -85 73 -21 65 17 168 74 203 36 22 70 25 115
9z m779 -151 c-3 -7 -5 -2 -5 12 0 14 2 19 5 13 2 -7 2 -19 0 -25z"/>
<path d="M1374 1945 c-3 -8 -3 -19 1 -25 11 -18 25 -11 25 15 0 27 -17 34 -26
10z"/>
<path d="M1095 1860 c-7 -12 2 -30 16 -30 5 0 9 9 9 20 0 21 -15 27 -25 10z"/>
<path d="M1630 1825 c0 -16 6 -25 15 -25 9 0 15 9 15 25 0 16 -6 25 -15 25 -9
0 -15 -9 -15 -25z"/>
<path d="M1272 1809 c-69 -13 -132 -69 -147 -132 -4 -16 -15 -27 -28 -29 -29
-4 -35 -38 -8 -45 11 -3 30 -24 42 -49 31 -65 93 -99 181 -99 63 0 69 2 103
35 22 22 41 52 48 79 10 35 19 47 44 58 18 7 33 19 33 27 0 17 -27 28 -50 21
-13 -4 -19 2 -25 22 -21 84 -100 130 -193 112z m41 -26 c-7 -2 -21 -2 -30 0
-10 3 -4 5 12 5 17 0 24 -2 18 -5z m-53 -13 c0 -5 -2 -10 -4 -10 -3 0 -8 5
-11 10 -3 6 -1 10 4 10 6 0 11 -4 11 -10z m110 -6 c0 -2 -9 -4 -21 -4 -11 0
-18 4 -14 10 5 8 35 3 35 -6z m-148 -1 c-6 -2 -9 -10 -5 -16 3 -7 3 -9 -2 -5
-4 4 -15 2 -24 -4 -10 -8 -9 -4 3 10 11 12 24 22 30 21 6 0 6 -3 -2 -6z m193
-33 c10 -11 16 -20 13 -20 -3 0 -13 9 -23 20 -10 11 -16 20 -13 20 3 0 13 -9
23 -20z m-249 -73 c2 -60 1 -61 -6 -17 -7 37 -5 80 3 80 1 0 3 -28 3 -63z
m-19 -49 c-2 -13 -4 -5 -4 17 -1 22 1 32 4 23 2 -10 2 -28 0 -40z m303 -5
c-11 -17 -11 -17 -6 0 3 10 6 24 7 30 0 9 2 9 5 0 3 -7 0 -20 -6 -30z m-19
-50 c-12 -20 -14 -14 -5 12 4 9 9 14 11 11 3 -2 0 -13 -6 -23z m-121 -51 c34
2 55 1 48 -4 -7 -4 -40 -7 -74 -7 -48 2 -64 6 -73 21 -11 18 -11 18 14 2 19
-12 40 -15 85 -12z"/>
<path d="M1830 1641 c0 -25 19 -38 31 -20 12 19 6 33 -14 37 -11 2 -17 -3 -17
-17z"/>
<path d="M1930 1426 c0 -17 5 -26 16 -26 10 0 14 7 12 22 -5 32 -28 35 -28 4z"/>
<path d="M1297 1244 c-9 -9 -9 -185 -1 -248 7 -46 7 -46 45 -46 21 0 40 3 42
8 3 4 2 70 -2 147 l-6 140 -35 3 c-20 2 -39 0 -43 -4z"/>
<path d="M2002 1188 c2 -13 8 -23 13 -23 6 0 11 10 13 23 2 15 -2 22 -13 22
-11 0 -15 -7 -13 -22z"/>
<path d="M1990 945 c0 -16 6 -25 15 -25 9 0 15 9 15 25 0 16 -6 25 -15 25 -9
0 -15 -9 -15 -25z"/>
<path d="M960 821 c0 -12 6 -21 16 -21 9 0 14 7 12 17 -5 25 -28 28 -28 4z"/>
<path d="M1822 818 c2 -13 8 -23 13 -23 6 0 11 10 13 23 2 15 -2 22 -13 22
-11 0 -15 -7 -13 -22z"/>
<path d="M1164 795 c-3 -8 -3 -19 1 -25 11 -18 25 -11 25 15 0 27 -17 34 -26
10z"/>
<path d="M1410 770 c0 -11 7 -20 15 -20 8 0 15 9 15 20 0 11 -7 20 -15 20 -8
0 -15 -9 -15 -20z"/>
<path d="M1625 780 c-7 -12 2 -30 16 -30 5 0 9 9 9 20 0 21 -15 27 -25 10z"/>
<path d="M1450 484 c0 -8 5 -12 10 -9 6 4 8 11 5 16 -9 14 -15 11 -15 -7z"/>
<path d="M1580 430 c0 -5 5 -10 11 -10 5 0 7 5 4 10 -3 6 -8 10 -11 10 -2 0
-4 -4 -4 -10z"/>
<path d="M1497 409 c7 -7 15 -10 18 -7 3 3 -2 9 -12 12 -14 6 -15 5 -6 -5z"/>
<path d="M1538 393 c7 -3 16 -2 19 1 4 3 -2 6 -13 5 -11 0 -14 -3 -6 -6z"/>
<path d="M1555 181 c-79 -4 -110 -10 -109 -18 1 -7 2 -48 3 -90 1 -96 13 -89
15 9 l1 73 95 6 c52 3 99 2 105 -3 5 -4 12 -43 15 -86 6 -63 7 -68 8 -26 2 60
-8 145 -17 142 -3 -1 -55 -4 -116 -7z"/>
</g>
</svg>
